<svg t="1698424317195" class="icon" viewBox="0 0 1024 1024" version="1.1" xmlns="http://www.w3.org/2000/svg" p-id="10220" width="200" height="200"><path d="M927.5392 770.5088H100.9664a30.72 30.72 0 0 1-30.72-30.72V143.36a30.72 30.72 0 0 1 30.72-30.72h826.5728a30.72 30.72 0 0 1 30.72 30.72v596.4288a30.72 30.72 0 0 1-30.72 30.72z m-795.8528-61.44h765.1328V174.08H131.6864z" fill="#1296db" p-id="10221"></path><path d="M459.21792 510.22336l94.47936-167.73632 53.5296 30.15168-94.47424 167.7312zM364.6464 551.8336L252.0576 442.624l109.3632-111.0528 43.776 43.1104-65.9456 66.9184 68.1984 66.0992-42.8032 44.1344zM701.184 551.8336l-42.8032-44.1344 68.1984-66.0992-65.9456-66.9184 43.776-43.1104 109.3632 111.0528-112.5888 109.2096z" fill="#1296db" p-id="10222"></path><path d="M741.7344 908.7488H281.6a30.72 30.72 0 1 1 0-61.44h460.0832a30.72 30.72 0 0 1 0 61.44z" fill="#1296db" p-id="10223"></path></svg>